<!-- BeCool · prenda del escaparate: blusa de manga larga. -->
<svg xmlns="http://www.w3.org/2000/svg" viewBox="0 0 200 470" role="img" aria-label="Blusa colgada de una percha">
  <g fill="none" stroke="#111111" stroke-width="3" stroke-linecap="round" stroke-linejoin="round">
    <path d="M100,46 C100,32 89,30 89,19 C89,10 96,5 102,5 C110,5 115,11 115,20"/>
    <path d="M100,46 L38,93 L162,93 Z"/>
  </g>
  <path fill="#FFFFFF" stroke="#111111" stroke-width="2.5" stroke-linejoin="round"
        d="M68,90 C56,93 48,99 44,111 L30,173 C28,181 33,186 41,185 L56,181 L58,252 C58,258 61,261 67,261 L133,261 C139,261 142,258 142,252 L144,181 L159,185 C167,186 172,181 170,173 L156,111 C152,99 144,93 132,90 C126,103 114,109 100,109 C86,109 74,103 68,90 Z"/>
  <path fill="none" stroke="#D8CFC2" stroke-width="2.5" stroke-linecap="round" d="M100,112 L100,255"/>
  <g fill="#D8CFC2"><circle cx="100" cy="140" r="3.4"/><circle cx="100" cy="176" r="3.4"/><circle cx="100" cy="212" r="3.4"/></g>
  <path fill="none" stroke="#111111" stroke-width="2.5" stroke-linejoin="round" d="M68,90 L86,104 L100,92 L114,104 L132,90"/>
</svg>
